<svg xmlns="http://www.w3.org/2000/svg" viewBox="0 0 100 100" role="img" aria-label="Connections Sorter">
  <title>Connections Sorter</title>
  <g>
    <rect x="8"  y="8"  width="18" height="18" rx="3" fill="#f9df6d"/>
    <rect x="30" y="8"  width="18" height="18" rx="3" fill="#f9df6d"/>
    <rect x="52" y="8"  width="18" height="18" rx="3" fill="#f9df6d"/>
    <rect x="74" y="8"  width="18" height="18" rx="3" fill="#f9df6d"/>

    <rect x="8"  y="30" width="18" height="18" rx="3" fill="#a0c35a"/>
    <rect x="30" y="30" width="18" height="18" rx="3" fill="#a0c35a"/>
    <rect x="52" y="30" width="18" height="18" rx="3" fill="#a0c35a"/>
    <rect x="74" y="30" width="18" height="18" rx="3" fill="#a0c35a"/>

    <rect x="8"  y="52" width="18" height="18" rx="3" fill="#b0c4ef"/>
    <rect x="30" y="52" width="18" height="18" rx="3" fill="#b0c4ef"/>
    <rect x="52" y="52" width="18" height="18" rx="3" fill="#b0c4ef"/>
    <rect x="74" y="52" width="18" height="18" rx="3" fill="#b0c4ef"/>

    <rect x="8"  y="74" width="18" height="18" rx="3" fill="#ba81c5"/>
    <rect x="30" y="74" width="18" height="18" rx="3" fill="#ba81c5"/>
    <rect x="52" y="74" width="18" height="18" rx="3" fill="#ba81c5"/>
    <rect x="74" y="74" width="18" height="18" rx="3" fill="#ba81c5"/>
  </g>
</svg>
